<?xml version="1.0" encoding="utf-8"?>
<svg xmlns="http://www.w3.org/2000/svg"
	xmlns:xlink="http://www.w3.org/1999/xlink"
	width="103px" height="34px" viewBox="0 0 103 34">
<path fillRule="evenodd" d="M 102.99 13C 102.99 13 102.99 15.97 102.99 15.97 102.99 15.97 94.98 15.97 94.98 15.97 94.98 15.97 94.98 1 94.98 1 94.98 1 102.99 1 102.99 1 102.99 1 102.99 3.98 102.99 3.98 102.99 3.98 99 3.98 99 3.98 99 3.98 99 7.03 99 7.03 99 7.03 101.98 7.03 101.98 7.03 101.98 7.03 101.98 10.01 101.98 10.01 101.98 10.01 98.97 10.01 98.97 10.01 98.97 10.01 98.97 13 98.97 13 98.97 13 102.99 13 102.99 13ZM 83 7.43C 83 7.43 83 15.97 83 15.97 83 15.97 78.98 15.97 78.98 15.97 78.98 15.97 78.98 1 78.98 1 78.98 1 81.76 1 81.76 1 81.76 1 89.02 9.07 89.02 9.07 89.02 9.07 89.02 1 89.02 1 89.02 1 92.98 1 92.98 1 92.98 1 92.98 15.97 92.98 15.97 92.98 15.97 89.84 15.97 89.84 15.97 89.84 15.97 83 7.43 83 7.43ZM 71.01 1C 71.01 1 75.98 1 75.98 1 75.98 1 75.98 16.01 75.98 16.01 75.98 16.01 71.01 16.01 71.01 16.01 71.01 16.01 71.01 1 71.01 1ZM 64.99 9.97C 64.99 9.97 55 9.97 55 9.97 55 9.97 55 16.01 55 16.01 55 16.01 51.99 16.01 51.99 16.01 51.99 16.01 51.99 0.97 51.99 0.97 51.99 0.97 55 0.97 55 0.97 55 0.97 55 6.98 55 6.98 55 6.98 64.99 6.98 64.99 6.98 64.99 6.98 64.99 0.97 64.99 0.97 64.99 0.97 68 0.97 68 0.97 68 0.97 68 16.01 68 16.01 68 16.01 64.99 16.01 64.99 16.01 64.99 16.01 64.99 9.97 64.99 9.97ZM 46.18 31.01C 46.18 31.01 39.97 31.01 39.97 31.01 39.97 31.01 39 34 39 34 39 34 35.12 34 35.12 34 35.12 34 41.35 18.99 41.35 18.99 41.35 18.99 44.82 18.99 44.82 18.99 44.82 18.99 51.03 34 51.03 34 51.03 34 47.17 34 47.17 34 47.17 34 46.18 31.01 46.18 31.01ZM 43.07 22.85C 43.07 22.85 41.18 27.97 41.18 27.97 41.18 27.97 44.97 27.97 44.97 27.97 44.97 27.97 43.07 22.85 43.07 22.85ZM 43.05 11.87C 44.67 11.87 45.78 10.99 46.18 9.4 46.18 9.4 46.68 9.4 46.68 9.4 46.68 9.39 46.68 9.39 46.68 9.39 46.68 9.39 50.41 9.39 50.41 9.39 49.96 13.18 47.07 15.77 43.06 15.77 38.64 15.77 35.3 12.56 35.3 8.14 35.3 3.72 38.64 0.51 43.06 0.51 47.07 0.51 49.96 3.09 50.41 6.89 50.41 6.89 46.68 6.89 46.68 6.89 46.68 6.89 46.68 6.88 46.68 6.88 46.68 6.88 46.18 6.88 46.18 6.88 45.78 5.28 44.68 4.4 43.05 4.4 40.95 4.4 39.48 5.93 39.48 8.13 39.48 10.34 40.95 11.87 43.05 11.87ZM 33.02 15.98C 33.02 15.98 32.03 12.98 32.03 12.98 32.03 12.98 23.44 12.98 23.44 12.98 23.44 12.98 22.47 15.98 22.47 15.98 22.47 15.98 18.59 15.98 18.59 15.98 18.59 15.98 24.82 0.94 24.82 0.94 24.82 0.94 30.67 0.94 30.67 0.94 30.67 0.94 36.88 15.47 36.88 15.47 36.88 15.47 33.02 15.98 33.02 15.98ZM 28.93 4.97C 28.93 4.97 28.93 4.97 28.93 4.97 28.93 4.97 26.54 4.97 26.54 4.97 26.54 4.97 24.65 10.02 24.65 10.02 24.65 10.02 30.83 10.02 30.83 10.02 30.83 10.02 28.93 4.97 28.93 4.97ZM 14.92 8.12C 14.92 8.12 11.16 13.14 11.16 13.14 11.16 13.14 11.16 13.16 11.16 13.16 11.16 13.16 9.13 13.16 9.13 13.16 9.13 13.16 9.13 13.14 9.13 13.14 9.13 13.14 6 8.07 6 8.07 6 8.07 6.02 15.98 6.02 15.98 6.02 15.98-0.01 15.98-0.01 15.98-0.01 15.98-0.01 1.03-0.01 1.03-0.01 1.03 4.93 1.03 4.93 1.03 4.93 1.03 10.14 8.63 10.14 8.63 10.14 8.63 15.19 1.03 15.19 1.03 15.19 1.03 18.06 1.03 18.06 1.03 18.06 1.03 18.06 15.98 18.06 15.98 18.06 15.98 14.92 15.98 14.92 15.98 14.92 15.98 14.92 8.12 14.92 8.12ZM 6.01 25.01C 6.01 25.01 14.02 25.01 14.02 25.01 14.02 25.01 14.02 18.98 14.02 18.98 14.02 18.98 17.99 18.98 17.99 18.98 17.99 18.98 17.99 34 17.99 34 17.99 34 14.02 34 14.02 34 14.02 34 14.02 27.92 14.02 27.92 14.02 27.92 6.01 27.92 6.01 27.92 6.01 27.92 6.01 34 6.01 34 6.01 34-0.01 34-0.01 34-0.01 34-0.01 18.98-0.01 18.98-0.01 18.98 6.01 18.98 6.01 18.98 6.01 18.98 6.01 25.01 6.01 25.01ZM 34.02 22C 34.02 22 25.01 22 25.01 22 25.01 22 25.01 24.97 25.01 24.97 25.01 24.97 33.01 24.97 33.01 24.97 33.01 24.97 33.01 28 33.01 28 33.01 28 25.01 28 25.01 28 25.01 28 25.01 30.97 25.01 30.97 25.01 30.97 34.08 30.97 34.08 30.97 34.08 30.97 34.08 34 34.08 34 34.08 34 19.98 34 19.98 34 19.98 34 19.98 18.98 19.98 18.98 19.98 18.98 34.02 18.98 34.02 18.98 34.02 18.98 34.02 22 34.02 22ZM 79.06 25.97C 79.06 30.33 75.74 34 71.15 34 71.15 34 51.99 34 51.99 34 51.99 34 51.99 18.98 51.99 18.98 51.99 18.98 71.15 18.98 71.15 18.98 75.74 18.98 79.06 21.68 79.06 25.97ZM 56.98 30.07C 56.98 30.07 71.15 30.07 71.15 30.07 73.52 30.07 75.36 28.3 75.36 25.97 75.36 23.71 73.52 22 71.15 22 71.15 22 56.98 22 56.98 22 56.98 22 56.98 30.07 56.98 30.07ZM 86.33 30.54C 87.69 30.54 88.4 30.05 88.4 29.25 88.4 28.75 88.1 28.23 86.85 28 86.85 28 84.43 27.46 84.43 27.46 81.54 26.83 80.18 25.48 80.18 23.15 80.18 20.21 82.56 18.36 86 18.36 88.38 18.36 91.91 19.29 92.28 23.23 92.28 23.23 88.61 23.23 88.61 23.23 88.42 22.13 87.73 21.38 86.24 21.38 84.99 21.38 84.15 21.9 84.15 22.85 84.15 23.64 84.73 23.99 85.83 24.22 85.83 24.22 87.88 24.7 87.88 24.7 90.55 25.28 92.3 26.36 92.3 28.88 92.3 31.81 89.89 33.94 86.22 33.94 82.92 33.94 79.95 32.09 79.6 28.47 79.6 28.47 83.25 28.47 83.25 28.47 83.48 29.77 84.6 30.54 86.33 30.54Z" fill="rgb(255,255,255)" /></svg>