<?xml version="1.0" encoding="utf-8"?>
<svg xmlns="http://www.w3.org/2000/svg"
	xmlns:xlink="http://www.w3.org/1999/xlink"
	width="73px" height="97px" viewBox="0 0 73 97">
<path fillRule="evenodd" d="M-0 97C-0 97-0 21.94-0 21.94-0 21.94 21.64-0 21.64-0 21.64-0 73-0 73-0 73-0 73 97 73 97 73 97-0 97-0 97ZM 24.97 11.11C 24.97 11.11 11.96 23.98 11.96 23.98 11.96 23.98 24.97 23.98 24.97 23.98 24.97 23.98 24.97 11.11 24.97 11.11ZM 65.02 8.04C 65.02 8.04 33.04 8.04 33.04 8.04 33.04 8.04 33.04 32.03 33.04 32.03 33.04 32.03 8.07 32.03 8.07 32.03 8.07 32.03 8.07 89.01 8.07 89.01 8.07 89.01 65.02 89.01 65.02 89.01 65.02 89.01 65.02 8.04 65.02 8.04ZM 55.98 64.02C 55.98 64.02 17.98 64.02 17.98 64.02 17.98 64.02 17.98 57 17.98 57 17.98 57 55.98 57 55.98 57 55.98 57 55.98 64.02 55.98 64.02ZM 38.02 78.98C 38.02 78.98 18.02 78.98 18.02 78.98 18.02 78.98 18.02 71.98 18.02 71.98 18.02 71.98 38.02 71.98 38.02 71.98 38.02 71.98 38.02 78.98 38.02 78.98ZM 18.02 41.98C 18.02 41.98 55.98 41.98 55.98 41.98 55.98 41.98 55.98 49 55.98 49 55.98 49 18.02 49 18.02 49 18.02 49 18.02 41.98 18.02 41.98Z" fill="rgb(163,205,77)"/></svg>