<?xml version="1.0" encoding="utf-8"?>
<svg xmlns="http://www.w3.org/2000/svg"
	xmlns:xlink="http://www.w3.org/1999/xlink"
	width="27px" height="22px" viewBox="0 0 27 22">
<path fillRule="evenodd" d="M 27-0C 27-0-0-0-0-0-0-0-0 22-0 22-0 22 26.99 22 26.99 22 26.99 22 26.99 21 26.99 20.99 27 21 27 22 27 22 27 22 27-0 27-0ZM 26.11 18.93C 26.11 18.93 17.35 10.4 17.35 10.4 17.35 10.4 26.11 1.86 26.11 1.86 26.11 1.86 26.11 18.93 26.11 18.93ZM 25.12 0.97C 25.12 0.97 13.5 12.67 13.5 12.67 13.5 12.67 1.87 0.97 1.87 0.97 1.87 0.97 25.12 0.97 25.12 0.97ZM 0.89 1.87C 0.89 1.87 9.65 10.4 9.65 10.4 9.65 10.4 0.89 18.92 0.89 18.92 0.89 18.92 0.89 1.87 0.89 1.87ZM 10.4 11.19C 10.4 11.19 13.14 13.85 13.14 13.85 13.14 13.85 13.5 14.21 13.5 14.21 13.5 14.21 13.83 13.88 13.83 13.88 13.83 13.88 16.6 11.2 16.6 11.2 16.6 11.2 25.34 20.03 25.34 20.03 25.34 20.03 1.66 20.03 1.66 20.03 1.66 20.03 10.4 11.19 10.4 11.19Z" fill="rgb(67,119,161)"/></svg>