<?xml version="1.0" encoding="utf-8"?>
<svg xmlns="http://www.w3.org/2000/svg"
	xmlns:xlink="http://www.w3.org/1999/xlink"
	width="96px" height="97px" viewBox="0 0 96 97">
<path fillRule="evenodd" d="M 69.33 76.65C 69.33 76.65 67.97 77.6 67.97 77.6 60.73 82.69 52.24 85.41 43.4 85.47 43.4 85.47 43.13 85.47 43.13 85.47 19.56 85.47 0.27 66.42 0.13 43-0.01 19.43 19.17 0.14 42.9-0 42.9-0 43.17-0 43.17-0 66.74-0 86.03 19.05 86.17 42.47 86.23 52.27 82.85 61.87 76.66 69.51 76.66 69.51 75.52 70.92 75.52 70.92 75.52 70.92 96 91.03 96 91.03 96 91.03 90.06 97 90.06 97 90.06 97 69.33 76.65 69.33 76.65ZM 42.95 9.09C 24.29 9.21 9.2 24.39 9.31 42.94 9.42 61.37 24.59 76.37 43.14 76.37 43.14 76.37 43.35 76.37 43.35 76.37 62.01 76.26 77.1 61.07 76.99 42.53 76.88 24.09 61.71 9.09 43.16 9.09 43.16 9.09 42.95 9.09 42.95 9.09Z" fill="rgb(163,205,77)"/></svg>