<?xml version="1.0" encoding="utf-8"?>
<svg xmlns="http://www.w3.org/2000/svg"
	xmlns:xlink="http://www.w3.org/1999/xlink"
	width="110px" height="103px" viewBox="0 0 110 103">
<path fillRule="evenodd" d="M 105.61 68C 104.19 70.76 102.1 73.14 99.55 74.95 97.87 90.86 86.15 97.18 69.99 98.9 69.99 98.9 69.99 103 69.99 103 69.99 103 57.74 103 57.74 103 57.74 103 48.53 103 48.53 103 48.53 103 47.03 103 47.03 103 47.03 103 47.03 90.97 47.03 90.97 47.03 90.97 69.99 90.97 69.99 90.97 69.99 90.97 69.99 93.51 69.99 93.51 84.35 92.03 90.97 87.56 92.96 77.76 92.11 77.93 91.26 78.09 90.37 78.18 90.37 78.18 90.4 80.98 90.4 80.98 90.4 80.98 82.04 80.98 82.04 80.98 82.04 80.98 82.04 38.02 82.04 38.02 82.04 38.02 89.99 38.02 89.99 38.02 89.99 38.02 90.02 40.96 90.02 40.96 91.1 40.96 92.38 40.96 92.96 41.05 92.96 41.05 92.96 33.78 92.96 33.78 92.96 33.78 73.78 6.98 73.78 6.98 73.78 6.98 36.21 6.98 36.21 6.98 36.21 6.98 17.02 33.2 17.02 33.2 17.02 33.2 17.02 41.97 17.02 41.97 17.02 41.97 20 41.97 20 41.97 20 41.97 20 38 20 38 20 38 27.99 37.97 27.99 37.97 27.99 37.97 27.99 41.23 27.99 41.23 27.99 41.24 27.99 41.25 27.99 41.25 27.99 41.25 27.99 78.13 27.99 78.13 27.99 78.13 27.99 78.13 27.99 78.13 27.99 78.13 27.99 80.98 27.99 80.98 27.99 80.98 20 81 20 81 20 81 20 78.21 20 78.21 13.15 77.77 7.3 73.73 4.37 67.98 4.37 67.98-0 67.98-0 67.98-0 67.98-0 52.96-0 52.96-0 52.96 3.47 52.96 3.47 52.96 4.4 50.31 5.9 47.96 7.99 46.03 7.99 46.03 7.99 33.78 7.99 33.78 7.99 33.78 33.46-0 33.46-0 33.46-0 76.59-0 76.59-0 76.59-0 101.01 33.78 101.01 33.78 101.01 33.78 101.01 45.67 101.01 45.67 103.3 47.64 105.13 50.15 106.29 52.99 106.29 52.99 110 52.99 110 52.99 110 52.99 110 68 110 68 110 68 105.61 68 105.61 68Z" fill="rgb(163,205,77)"/></svg>