<?xml version="1.0" encoding="utf-8"?>
<svg xmlns="http://www.w3.org/2000/svg"
	xmlns:xlink="http://www.w3.org/1999/xlink"
	width="35px" height="35px" viewBox="0 0 35 35">
<path fillRule="evenodd" d="M 31.1-0C 30.53-0 30.06 0.47 30.06 1.04 30.06 1.04 30.06 7.01 30.06 7.01 30.06 7.01 1.04 7.01 1.04 7.01 0.47 7.01 0 7.47 0 8.05 0 8.05 0 33.96 0 33.96 0 34.53 0.47 35 1.04 35 1.04 35 30.6 35 30.6 35 33.03 35 35 33.03 35 30.6 35 30.6 35 4.4 35 4.4 35 1.97 33.53-0 31.1-0ZM 30.6 33.01C 30.6 33.01 1.99 33.01 1.99 33.01 1.99 33.01 1.99 8.99 1.99 8.99 1.99 8.99 30.06 8.99 30.06 8.99 30.06 8.99 30.06 27.25 30.06 27.25 30.06 27.82 30.53 28.29 31.1 28.29 32.38 28.29 32.91 29.33 32.91 30.6 32.91 31.88 31.88 33.01 30.6 33.01ZM 32.91 26.86C 32.53 26.62 32.4 26.44 31.95 26.33 31.95 26.33 31.95 2.34 31.95 2.34 32.7 2.72 32.91 3.5 32.91 4.4 32.91 4.4 32.91 26.86 32.91 26.86ZM 26.01 11.01C 26.01 11.01 6.04 11.01 6.04 11.01 5.46 11.01 4.99 11.48 4.99 12.06 4.99 12.06 4.99 29.95 4.99 29.95 4.99 30.52 5.46 30.99 6.04 30.99 6.04 30.99 26.01 30.99 26.01 30.99 26.59 30.99 27.05 30.52 27.05 29.95 27.05 29.95 27.05 21.06 27.05 21.06 27.05 20.48 26.59 20.01 26.01 20.01 25.43 20.01 24.97 20.48 24.97 21.06 24.97 21.06 24.97 23.02 24.97 23.02 24.97 23.02 23.84 23.02 23.84 23.02 23.26 23.02 22.79 23.48 22.79 24.06 22.79 24.64 23.26 25 23.84 25 23.84 25 24.97 25 24.97 25 24.97 25 24.97 29.01 24.97 29.01 24.97 29.01 6.98 29.01 6.98 29.01 6.98 29.01 6.98 22 6.98 22 6.98 22 14.98 22 14.98 22 14.98 22 14.98 26.52 14.98 26.52 14.98 27.09 15.25 27.56 15.82 27.56 16.4 27.56 16.87 27.09 16.87 26.52 16.87 26.52 16.87 25 16.87 25 16.87 25 20.17 25 20.17 25 20.74 25 21.21 24.64 21.21 24.06 21.21 23.48 20.74 23.02 20.17 23.02 20.17 23.02 16.87 23.02 16.87 23.02 16.87 23.02 16.87 19.55 16.87 19.55 16.87 18.98 16.4 18.51 15.82 18.51 15.25 18.51 14.98 19.18 14.98 19.75 14.98 19.75 14.98 20.01 14.98 20.01 14.98 20.01 6.98 20.01 6.98 20.01 6.98 20.01 6.98 13 6.98 13 6.98 13 14.88 13 14.88 13 14.88 13 14.88 15.91 14.88 15.91 14.88 16.49 15.25 16.96 15.82 16.96 16.4 16.96 16.97 16.49 16.97 15.91 16.97 15.91 16.97 13 16.97 13 16.97 13 24.97 13 24.97 13 24.97 13 24.97 15.67 24.97 15.67 24.97 15.67 22.76 17.88 22.76 17.88 22.35 18.29 22.35 18.95 22.76 19.36 22.96 19.56 23.23 19.67 23.49 19.67 23.76 19.67 24.03 19.56 24.23 19.36 24.23 19.36 26.75 16.84 26.75 16.84 26.8 16.79 26.84 16.74 26.88 16.68 26.89 16.66 26.91 16.63 26.92 16.61 26.94 16.57 26.96 16.54 26.97 16.5 26.99 16.47 27 16.43 27.01 16.4 27.02 16.37 27.03 16.34 27.03 16.31 27.05 16.24 27.05 16.17 27.05 16.1 27.05 16.1 27.05 12.06 27.05 12.06 27.05 11.48 26.59 11.01 26.01 11.01Z" fill="rgb(1,69,135)" opacity="0.50"/></svg>