<?xml version="1.0" encoding="utf-8"?>
<svg xmlns="http://www.w3.org/2000/svg"
	xmlns:xlink="http://www.w3.org/1999/xlink"
	width="23px" height="23px" viewBox="0 0 23 23">
<path fillRule="evenodd" d="M 23 21.01C 23 21.01 18.29 16.44 18.29 16.44 19.73 14.69 20.58 12.46 20.57 10.04 20.53 4.46 15.9-0.03 10.22 0 4.54 0.04-0.03 4.59-0 10.17 0.03 15.75 4.66 20.25 10.34 20.21 12.53 20.2 14.55 19.51 16.21 18.35 16.21 18.35 21 23 21 23 21 23 23 21.01 23 21.01ZM 3.01 10.15C 2.98 6.2 6.22 2.98 10.24 2.96 14.26 2.93 17.53 6.11 17.56 10.06 17.58 14.01 14.34 17.23 10.33 17.25 6.31 17.28 3.03 14.1 3.01 10.15Z" fill="rgb(129,151,167)"/></svg>