<?xml version="1.0" encoding="utf-8"?>
<svg xmlns="http://www.w3.org/2000/svg"
	xmlns:xlink="http://www.w3.org/1999/xlink"
	width="20px" height="20px" viewBox="0 0 20 20">
<path fillRule="evenodd" d="M 19.25 18.02C 19.25 18.02 15.37 14.13 15.37 14.13 16.57 12.66 17.29 10.78 17.29 8.73 17.29 4.02 13.46 0.19 8.75 0.19 4.03 0.19 0.21 4.02 0.21 8.73 0.21 13.45 4.03 17.27 8.75 17.27 10.57 17.27 12.25 16.7 13.63 15.73 13.63 15.73 17.58 19.69 17.58 19.69 17.58 19.69 19.25 18.02 19.25 18.02ZM 2.71 8.73C 2.71 5.4 5.41 2.69 8.75 2.69 12.08 2.69 14.79 5.4 14.79 8.73 14.79 12.07 12.08 14.78 8.75 14.78 5.41 14.78 2.71 12.07 2.71 8.73Z" fill="rgb(255,255,255)"/></svg>