<?xml version="1.0" encoding="utf-8"?>
<svg xmlns="http://www.w3.org/2000/svg"
	xmlns:xlink="http://www.w3.org/1999/xlink"
	width="18px" height="32px" viewBox="0 0 18 32">
<path fillRule="evenodd" d="M 15.64 31.99C 15.64 31.99 2.36 31.99 2.36 31.99 1.04 31.99-0.02 30.89-0.02 29.54-0.02 29.54-0.02 4.41-0.02 4.41-0.02 3.6-0 1-0 1-0 1 1.83 0.96 2.36 0.96 2.36 0.96 15.64 1 15.64 1 15.64 1 18 1 18 1 18 1 18.03 3.41 18.03 3.41 18.03 3.41 18.03 29.54 18.03 29.54 18.03 30.89 16.96 31.99 15.64 31.99ZM 2.33 1.99C 2.33 1.99 1 2 1 2 1 2 0.98 28.52 0.98 28.52 0.98 29.33 1.62 29.99 2.41 29.99 2.41 29.99 15.55 29.99 15.55 29.99 16.34 29.99 16.98 29.33 16.98 28.52 16.98 28.52 16.98 3.47 16.98 3.47 16.98 3.47 17 2 17 2 17 2 2.33 1.99 2.33 1.99ZM 2.97 5.95C 2.97 5.95 15 5.95 15 5.95 15 5.95 15 24.01 15 24.01 15 24.01 2.99 24.01 2.99 24.01 2.99 24.01 2.97 5.95 2.97 5.95ZM 14.01 23C 14.01 23 14.01 7.02 14.01 7.02 14.01 7.02 3.98 6.98 3.98 6.98 3.98 6.98 3.95 23 3.95 23 3.95 23 14.01 23 14.01 23ZM 7 3.98C 7 3.98 10.99 3.98 10.99 3.98 10.99 3.98 10.99 4.97 10.99 4.97 10.99 4.97 7 4.97 7 4.97 7 4.97 7 3.98 7 3.98ZM 11.01 25.99C 11.01 25.99 11.02 28.01 11.02 28.01 11.02 28.01 7 28 7 28 7 28 7.01 25.98 7.01 25.98 7.01 25.98 11.01 25.99 11.01 25.99Z" fill="rgb(67,119,163)"/></svg>